HIERARCHY
ROOT Hips
{
	OFFSET 0.327225 85.456291 8.060652
	CHANNELS 6 Xposition Yposition Zposition Zrotation Yrotation Xrotation 
	JOINT Spine
	{
		OFFSET 0.000000 8.814246 -2.080107
		CHANNELS 3 Zrotation Yrotation Xrotation
		JOINT Spine1
		{
			OFFSET -0.000000 8.844141 0.000000
			CHANNELS 3 Zrotation Yrotation Xrotation
			JOINT Spine2
			{
				OFFSET 0.000000 11.682268 0.000000
				CHANNELS 3 Zrotation Yrotation Xrotation
				JOINT Spine3
				{
					OFFSET 0.000000 11.746700 0.000000
					CHANNELS 3 Zrotation Yrotation Xrotation
					JOINT Neck
					{
						OFFSET 0.000000 17.658264 0.000000
						CHANNELS 3 Zrotation Yrotation Xrotation
						JOINT Neck1
						{
							OFFSET 0.000000 5.101515 0.000000
							CHANNELS 3 Zrotation Yrotation Xrotation
							JOINT Head
							{
								OFFSET -0.000000 5.101515 -0.000000
								CHANNELS 3 Zrotation Yrotation Xrotation
								JOINT HeadEnd
								{
									OFFSET 0.000000 11.655085 0.000000
									CHANNELS 3 Zrotation Yrotation Xrotation
									End Site
									{
										OFFSET 0.000000 0.000000 0.000000
									}
								}
							}
						}
					}
					JOINT RightShoulder
					{
						OFFSET -2.625389 11.175210 -0.000000
						CHANNELS 3 Zrotation Yrotation Xrotation
						JOINT RightArm
						{
							OFFSET 0.000000 10.434715 0.000000
							CHANNELS 3 Zrotation Yrotation Xrotation
							JOINT RightForeArm
							{
								OFFSET -0.000000 29.628420 -0.000000
								CHANNELS 3 Zrotation Yrotation Xrotation
								JOINT RightHand
								{
									OFFSET 0.000000 22.857611 -0.000000
									CHANNELS 3 Zrotation Yrotation Xrotation
									JOINT RightHandThumb1
									{
										OFFSET -2.867323 3.959563 2.944291
										CHANNELS 3 Zrotation Yrotation Xrotation
										JOINT RightHandThumb2
										{
											OFFSET -0.000000 3.350399 0.000000
											CHANNELS 3 Zrotation Yrotation Xrotation
											JOINT RightHandThumb3
											{
												OFFSET -0.000000 3.756509 0.000000
												CHANNELS 3 Zrotation Yrotation Xrotation
												JOINT RightHandThumb4
												{
													OFFSET -0.000000 3.147345 0.000000
													CHANNELS 3 Zrotation Yrotation Xrotation
													End Site
													{
														OFFSET 0.000000 0.000000 0.000000
													}
												}
											}
										}
									}
									JOINT RightHandIndex1
									{
										OFFSET -0.086752 10.030893 2.345280
										CHANNELS 3 Zrotation Yrotation Xrotation
										JOINT RightHandIndex2
										{
											OFFSET -0.000000 4.061090 -0.000000
											CHANNELS 3 Zrotation Yrotation Xrotation
											JOINT RightHandIndex3
											{
												OFFSET 0.000000 3.248873 -0.000000
												CHANNELS 3 Zrotation Yrotation Xrotation
												JOINT RightHandIndex4
												{
													OFFSET 0.000000 2.639709 -0.000000
													CHANNELS 3 Zrotation Yrotation Xrotation
													End Site
													{
														OFFSET 0.000000 0.000000 0.000000
													}
												}
											}
										}
									}
									JOINT RightHandMiddle1
									{
										OFFSET 0.104102 9.502952 0.006768
										CHANNELS 3 Zrotation Yrotation Xrotation
										JOINT RightHandMiddle2
										{
											OFFSET -0.000000 4.568727 -0.000000
											CHANNELS 3 Zrotation Yrotation Xrotation
											JOINT RightHandMiddle3
											{
												OFFSET -0.000000 3.654981 -0.000000
												CHANNELS 3 Zrotation Yrotation Xrotation
												JOINT RightHandMiddle4
												{
													OFFSET -0.000000 2.741236 -0.000000
													CHANNELS 3 Zrotation Yrotation Xrotation
													End Site
													{
														OFFSET 0.000000 0.000000 0.000000
													}
												}
											}
										}
									}
									JOINT RightHandRing1
									{
										OFFSET 0.086752 8.921708 -2.267442
										CHANNELS 3 Zrotation Yrotation Xrotation
										JOINT RightHandRing2
										{
											OFFSET -0.000000 4.061090 0.000000
											CHANNELS 3 Zrotation Yrotation Xrotation
											JOINT RightHandRing3
											{
												OFFSET 0.000000 3.654981 -0.000000
												CHANNELS 3 Zrotation Yrotation Xrotation
												JOINT RightHandRing4
												{
													OFFSET 0.000000 2.741236 -0.000000
													CHANNELS 3 Zrotation Yrotation Xrotation
													End Site
													{
														OFFSET 0.000000 0.000000 0.000000
													}
												}
											}
										}
									}
									JOINT RightHandPinky1
									{
										OFFSET -0.173504 7.976997 -4.467199
										CHANNELS 3 Zrotation Yrotation Xrotation
										JOINT RightHandPinky2
										{
											OFFSET -0.000000 3.350399 0.000000
											CHANNELS 3 Zrotation Yrotation Xrotation
											JOINT RightHandPinky3
											{
												OFFSET 0.000000 2.842763 -0.000000
												CHANNELS 3 Zrotation Yrotation Xrotation
												JOINT RightHandPinky4
												{
													OFFSET -0.000000 2.639709 0.000000
													CHANNELS 3 Zrotation Yrotation Xrotation
													End Site
													{
														OFFSET 0.000000 0.000000 0.000000
													}
												}
											}
										}
									}
									JOINT RightForeArmEnd
									{
										OFFSET 0.000000 0.000000 0.000000
										CHANNELS 3 Zrotation Yrotation Xrotation
										End Site
										{
											OFFSET 0.000000 0.000000 0.000000
										}
									}
								}
								JOINT RightArmEnd
								{
									OFFSET 0.000000 0.000000 0.000000
									CHANNELS 3 Zrotation Yrotation Xrotation
									End Site
									{
										OFFSET 0.000000 0.000000 0.000000
									}
								}
							}
						}
					}
					JOINT LeftShoulder
					{
						OFFSET 2.625389 11.175210 0.000000
						CHANNELS 3 Zrotation Yrotation Xrotation
						JOINT LeftArm
						{
							OFFSET -0.000000 10.813635 0.000000
							CHANNELS 3 Zrotation Yrotation Xrotation
							JOINT LeftForeArm
							{
								OFFSET 0.000000 28.724781 -0.000000
								CHANNELS 3 Zrotation Yrotation Xrotation
								JOINT LeftHand
								{
									OFFSET 0.644384 25.716167 -0.328871
									CHANNELS 3 Zrotation Yrotation Xrotation
									JOINT LeftHandThumb1
									{
										OFFSET 2.867323 3.959563 2.944291
										CHANNELS 3 Zrotation Yrotation Xrotation
										JOINT LeftHandThumb2
										{
											OFFSET 0.000000 3.350399 -0.000000
											CHANNELS 3 Zrotation Yrotation Xrotation
											JOINT LeftHandThumb3
											{
												OFFSET 0.000000 3.756509 0.000000
												CHANNELS 3 Zrotation Yrotation Xrotation
												JOINT LeftHandThumb4
												{
													OFFSET 0.000000 3.100000 0.000000
													CHANNELS 3 Zrotation Yrotation Xrotation
													End Site
													{
														OFFSET 0.000000 0.000000 0.000000
													}
												}
											}
										}
									}
									JOINT LeftHandIndex1
									{
										OFFSET 0.086752 10.030893 2.345280
										CHANNELS 3 Zrotation Yrotation Xrotation
										JOINT LeftHandIndex2
										{
											OFFSET 0.000000 4.061090 0.000000
											CHANNELS 3 Zrotation Yrotation Xrotation
											JOINT LeftHandIndex3
											{
												OFFSET -0.000000 3.248873 -0.000000
												CHANNELS 3 Zrotation Yrotation Xrotation
												JOINT LeftHandIndex4
												{
													OFFSET -0.000000 2.639709 -0.000000
													CHANNELS 3 Zrotation Yrotation Xrotation
													End Site
													{
														OFFSET 0.000000 0.000000 0.000000
													}
												}
											}
										}
									}
									JOINT LeftHandMiddle1
									{
										OFFSET -0.104102 9.502952 0.006768
										CHANNELS 3 Zrotation Yrotation Xrotation
										JOINT LeftHandMiddle2
										{
											OFFSET 0.000000 4.568727 0.000000
											CHANNELS 3 Zrotation Yrotation Xrotation
											JOINT LeftHandMiddle3
											{
												OFFSET -0.000000 3.654981 -0.000000
												CHANNELS 3 Zrotation Yrotation Xrotation
												JOINT LeftHandMiddle4
												{
													OFFSET -0.000000 2.741236 -0.000000
													CHANNELS 3 Zrotation Yrotation Xrotation
													End Site
													{
														OFFSET 0.000000 0.000000 0.000000
													}
												}
											}
										}
									}
									JOINT LeftHandRing1
									{
										OFFSET -0.086752 8.921708 -2.267442
										CHANNELS 3 Zrotation Yrotation Xrotation
										JOINT LeftHandRing2
										{
											OFFSET 0.000000 4.061090 0.000000
											CHANNELS 3 Zrotation Yrotation Xrotation
											JOINT LeftHandRing3
											{
												OFFSET -0.000000 3.654981 -0.000000
												CHANNELS 3 Zrotation Yrotation Xrotation
												JOINT LeftHandRing4
												{
													OFFSET -0.000000 2.741236 -0.000000
													CHANNELS 3 Zrotation Yrotation Xrotation
													End Site
													{
														OFFSET 0.000000 0.000000 0.000000
													}
												}
											}
										}
									}
									JOINT LeftHandPinky1
									{
										OFFSET 0.173504 7.976997 -4.467199
										CHANNELS 3 Zrotation Yrotation Xrotation
										JOINT LeftHandPinky2
										{
											OFFSET 0.000000 3.350399 0.000000
											CHANNELS 3 Zrotation Yrotation Xrotation
											JOINT LeftHandPinky3
											{
												OFFSET 0.000000 2.842763 0.000000
												CHANNELS 3 Zrotation Yrotation Xrotation
												JOINT LeftHandPinky4
												{
													OFFSET 0.000000 2.639709 -0.000000
													CHANNELS 3 Zrotation Yrotation Xrotation
													End Site
													{
														OFFSET 0.000000 0.000000 0.000000
													}
												}
											}
										}
									}
									JOINT LeftForeArmEnd
									{
										OFFSET 0.000000 0.000000 0.000000
										CHANNELS 3 Zrotation Yrotation Xrotation
										End Site
										{
											OFFSET 0.000000 0.000000 0.000000
										}
									}
								}
								JOINT LeftArmEnd
								{
									OFFSET 0.000000 0.000000 0.000000
									CHANNELS 3 Zrotation Yrotation Xrotation
									End Site
									{
										OFFSET 0.000000 0.000000 0.000000
									}
								}
							}
						}
					}
				}
			}
		}
	}
	JOINT RightUpLeg
	{
		OFFSET -11.289943 0.000000 -0.000000
		CHANNELS 3 Zrotation Yrotation Xrotation
		JOINT RightLeg
		{
			OFFSET -0.000000 -38.200325 -0.000000
			CHANNELS 3 Zrotation Yrotation Xrotation
			JOINT RightFoot
			{
				OFFSET -0.000000 -39.900856 0.000000
				CHANNELS 3 Zrotation Yrotation Xrotation
				JOINT RightToeBase
				{
					OFFSET 0.000000 -0.000000 15.261641
					CHANNELS 3 Zrotation Yrotation Xrotation
					JOINT RightToeBaseEnd
					{
						OFFSET -0.000000 -0.000000 7.370709
						CHANNELS 3 Zrotation Yrotation Xrotation
						End Site
						{
							OFFSET 0.000000 0.000000 0.000000
						}
					}
				}
				JOINT RightLegEnd
				{
					OFFSET 0.000000 0.000000 0.000000
					CHANNELS 3 Zrotation Yrotation Xrotation
					End Site
					{
						OFFSET 0.000000 0.000000 0.000000
					}
				}
			}
			JOINT RightUpLegEnd
			{
				OFFSET 0.000000 0.000000 0.000000
				CHANNELS 3 Zrotation Yrotation Xrotation
				End Site
				{
					OFFSET 0.000000 0.000000 0.000000
				}
			}
		}
	}
	JOINT LeftUpLeg
	{
		OFFSET 11.315661 -0.000000 0.000000
		CHANNELS 3 Zrotation Yrotation Xrotation
		JOINT LeftLeg
		{
			OFFSET -0.000000 -38.200325 -0.000000
			CHANNELS 3 Zrotation Yrotation Xrotation
			JOINT LeftFoot
			{
				OFFSET -0.000000 -39.900856 0.000000
				CHANNELS 3 Zrotation Yrotation Xrotation
				JOINT LeftToeBase
				{
					OFFSET 0.000000 -0.000000 15.261641
					CHANNELS 3 Zrotation Yrotation Xrotation
					JOINT LeftToeBaseEnd
					{
						OFFSET -0.000000 0.000000 7.539996
						CHANNELS 3 Zrotation Yrotation Xrotation
						End Site
						{
							OFFSET 0.000000 0.000000 0.000000
						}
					}
				}
				JOINT LeftLegEnd
				{
					OFFSET 0.000000 0.000000 0.000000
					CHANNELS 3 Zrotation Yrotation Xrotation
					End Site
					{
						OFFSET 0.000000 0.000000 0.000000
					}
				}
			}
			JOINT LeftUpLegEnd
			{
				OFFSET 0.000000 0.000000 0.000000
				CHANNELS 3 Zrotation Yrotation Xrotation
				End Site
				{
					OFFSET 0.000000 0.000000 0.000000
				}
			}
		}
	}
}
MOTION
Frames: 4
Frame Time: 0.016667
-8.303912 87.202255 8.509581 -1.451392 6.173895 -21.243399 2.501034 -0.486441 9.811201 -0.045910 -0.079441 1.390792 0.811030 -1.845302 14.923105 -0.775803 -0.148475 8.518747 5.453018 -1.008317 15.560744 0.101998 0.765741 0.408375 0.082719 -0.021839 -22.569567 0.000000 0.000000 0.000000 91.196281 -0.449507 10.785947 60.775257 -2.210525 11.295892 0.083204 22.576662 46.711933 31.061886 54.723324 22.666630 -3.895078 0.591648 46.539890 0.000019 -0.000015 9.113812 -0.000016 0.000047 6.693407 0.000018 0.000008 -0.000022 13.382667 1.310048 0.959666 8.868817 -0.008024 -0.363469 8.536862 0.088977 -0.339870 -0.000023 0.000011 -0.000009 11.707676 0.533628 -2.346230 8.319551 -0.053746 -0.152688 8.284489 0.032187 -0.133823 -0.000013 -0.000068 0.000010 12.344216 -0.683245 -6.205774 8.707702 0.117255 0.190918 8.909102 -0.037771 0.156279 0.000008 -0.001043 -0.000003 12.983274 -1.811884 -10.710223 8.881992 0.171724 0.590384 8.974527 -0.165336 0.512463 0.000085 0.000010 -0.000053 0.000000 0.000000 0.000000 0.000000 0.000000 0.000000 -89.105148 0.111605 7.336448 -70.521645 -2.972428 0.468446 -0.891448 -17.979689 64.830482 -50.116173 -69.567764 36.014023 5.402828 -0.766540 46.923382 0.000008 0.000034 11.847475 0.000140 -0.000002 8.675808 -0.002042 0.000011 -0.000515 -7.259499 1.220237 2.963672 -5.966936 0.026866 0.565297 -5.867774 0.122806 0.494911 0.000000 0.000422 0.000003 -8.692126 0.506432 -1.135681 -5.893634 -0.049860 0.207937 -5.873535 0.036767 0.182040 -0.001164 0.000001 0.000095 -13.470016 -0.626440 -6.366266 -7.678381 0.094259 -0.316460 -7.477853 -0.053107 -0.208357 -0.000126 0.000009 0.000000 -16.082237 -1.827817 -11.796766 -9.458309 0.144549 -0.902430 -9.394862 -0.185941 -0.675404 -0.000193 0.000015 -0.000039 0.000000 0.000000 0.000000 0.000000 0.000000 0.000000 -1.004820 -5.054065 21.574333 -0.162406 -0.798477 12.886892 -2.121772 -10.107203 12.560453 -1.175462 1.103181 -16.655796 0.000000 0.000000 0.000000 0.000000 0.000000 0.000000 0.000000 0.000000 0.000000 7.139471 -3.291640 17.616386 0.346583 0.957700 19.693621 -1.757228 5.427402 9.908033 0.917544 -0.863170 -19.345581 0.000000 0.000000 0.000000 0.000000 0.000000 0.000000 0.000000 0.000000 0.000000 
-8.316022 87.202736 8.510681 -1.433434 6.284624 -21.220240 2.479684 -0.480388 9.812101 -0.045630 -0.079334 1.323696 0.779013 -1.827990 14.928013 -0.742172 -0.151783 8.528130 5.504094 -1.092852 15.599410 0.108038 0.712763 0.465847 0.115992 -0.010624 -22.522917 0.000000 0.000000 0.000000 91.162384 -0.430596 10.763912 60.923222 -1.559008 11.175783 0.073213 22.659134 46.851227 30.907232 55.468258 22.638216 -3.963803 0.599967 46.560631 0.000020 -0.000016 9.247801 -0.000016 0.000046 6.790700 0.000018 0.000007 -0.000022 12.804430 1.312239 1.205455 8.574145 -0.003978 -0.374460 8.246644 0.093221 -0.349563 -0.000023 0.000011 -0.000008 11.162496 0.533521 -2.159541 8.034984 -0.052149 -0.156578 7.998487 0.033446 -0.136551 -0.000013 -0.000068 0.000009 11.816538 -0.684050 -6.129826 8.390223 0.115141 0.192371 8.585754 -0.039115 0.158170 0.000008 -0.001020 -0.000004 12.493913 -1.814436 -10.748594 8.574409 0.168770 0.592581 8.668229 -0.169204 0.515656 0.000067 0.000010 -0.000053 0.000000 0.000000 0.000000 0.000000 0.000000 0.000000 -89.045052 0.097987 7.333080 -70.572617 -3.295890 0.411032 -0.875862 -17.986696 65.343513 -51.235130 -69.622353 36.961193 5.463255 -0.773466 46.940067 0.000008 0.000034 11.961493 0.000134 -0.000002 8.764242 -0.001948 0.000011 -0.000610 -6.618989 1.221945 3.152768 -5.625601 0.026535 0.556753 -5.521056 0.122476 0.487592 0.000000 0.000461 0.000002 -8.088576 0.507041 -1.023419 -5.552129 -0.049742 0.204185 -5.538582 0.036665 0.179079 -0.001146 0.000002 0.000091 -12.878462 -0.625995 -6.394033 -7.325522 0.094685 -0.312329 -7.129716 -0.053112 -0.205513 -0.000111 0.000009 0.000000 -15.559170 -1.828281 -11.957514 -9.150967 0.145666 -0.892483 -9.094462 -0.186015 -0.668103 -0.000160 0.000016 -0.000039 0.000000 0.000000 0.000000 0.000000 0.000000 0.000000 -1.015818 -5.060519 21.550940 -0.162609 -0.800972 12.960800 -2.089165 -10.107944 12.503817 -1.175876 1.102623 -16.652367 0.000000 0.000000 0.000000 0.000000 0.000000 0.000000 0.000000 0.000000 0.000000 7.116432 -3.270261 17.577353 0.345124 0.952060 19.686708 -1.745595 5.372230 9.927522 0.917108 -0.865021 -19.330395 0.000000 0.000000 0.000000 0.000000 0.000000 0.000000 0.000000 0.000000 0.000000 
-8.332839 87.204117 8.515061 -1.421119 6.401966 -21.203857 2.460320 -0.474831 9.811017 -0.050918 -0.078119 1.261318 0.744068 -1.821023 14.938231 -0.704660 -0.159148 8.548239 5.537914 -1.178115 15.613084 0.112624 0.652480 0.505965 0.150182 -0.000733 -22.471611 0.000000 0.000000 0.000000 91.147911 -0.410747 10.757657 61.008995 -1.239267 11.013540 0.056395 22.710384 47.058453 30.629732 55.922626 22.407007 -4.029746 0.607295 46.579594 0.000020 -0.000016 9.372218 -0.000016 0.000046 6.883120 0.000017 0.000007 -0.000022 12.276109 1.313323 1.321730 8.318030 -0.001332 -0.382990 7.996745 0.095965 -0.357436 -0.000023 0.000011 -0.000008 10.680006 0.532959 -2.079914 7.791797 -0.051129 -0.159625 7.754631 0.034230 -0.138550 -0.000013 -0.000067 0.000009 11.376857 -0.684616 -6.123875 8.134769 0.113809 0.193571 8.323149 -0.039864 0.159824 0.000008 -0.001041 -0.000005 12.104624 -1.817095 -10.826365 8.335825 0.167587 0.595999 8.428619 -0.171541 0.519566 0.000040 0.000010 -0.000052 0.000000 0.000000 0.000000 0.000000 0.000000 0.000000 -88.994125 0.087761 7.343701 -70.587936 -3.385028 0.302071 -0.855619 -17.954819 65.978859 -51.941444 -69.476273 37.459366 5.521771 -0.780431 46.955727 0.000008 0.000034 12.069363 0.000130 -0.000002 8.847399 -0.001837 0.000012 -0.000683 -6.039611 1.223268 3.232644 -5.311495 0.025099 0.543634 -5.200850 0.121014 0.477074 0.000001 0.000471 0.000002 -7.533713 0.507691 -0.998716 -5.237463 -0.050110 0.198978 -5.230847 0.036180 0.174975 -0.001136 0.000003 0.000087 -12.320479 -0.625635 -6.471940 -7.005528 0.095812 -0.306653 -6.813808 -0.052671 -0.201655 -0.000090 0.000009 -0.000000 -15.066678 -1.829702 -12.133751 -8.875748 0.148395 -0.878429 -8.828698 -0.184627 -0.657698 -0.000126 0.000016 -0.000039 0.000000 0.000000 0.000000 0.000000 0.000000 0.000000 -1.019756 -5.085825 21.543661 -0.162705 -0.802915 13.016080 -2.060751 -10.119630 12.448666 -1.175523 1.101180 -16.641878 0.000000 0.000000 0.000000 0.000000 0.000000 0.000000 0.000000 0.000000 0.000000 7.103446 -3.251776 17.537609 0.343925 0.946604 19.685688 -1.733295 5.314367 9.951297 0.918812 -0.866017 -19.320124 0.000000 0.000000 0.000000 0.000000 0.000000 0.000000 0.000000 0.000000 0.000000 
-8.353976 87.206841 8.521916 -1.417247 6.515863 -21.191523 2.446485 -0.470132 9.804788 -0.057177 -0.076812 1.212297 0.710235 -1.824760 14.947472 -0.665066 -0.170122 8.580905 5.564179 -1.258644 15.608861 0.115874 0.591027 0.528991 0.184043 0.008302 -22.421217 0.000000 0.000000 0.000000 91.151077 -0.392239 10.762541 61.058273 -1.183972 10.805524 0.034475 22.735575 47.350151 30.336447 56.119183 22.099838 -4.090532 0.613222 46.596016 0.000021 -0.000016 9.482217 -0.000017 0.000045 6.968221 0.000017 0.000007 -0.000022 11.824496 1.313451 1.337621 8.105267 0.000151 -0.389604 7.790876 0.097428 -0.363993 -0.000023 0.000010 -0.000008 10.282706 0.532108 -2.085953 7.591516 -0.050606 -0.161984 7.555305 0.034600 -0.140000 -0.000013 -0.000066 0.000009 11.041165 -0.684938 -6.175646 7.938872 0.113137 0.194760 8.120023 -0.040126 0.161339 0.000009 -0.001112 -0.000005 11.823780 -1.819493 -10.937433 8.161697 0.167629 0.600740 8.251553 -0.172528 0.523844 0.000004 0.000010 -0.000051 0.000000 0.000000 0.000000 0.000000 0.000000 0.000000 -88.955376 0.081222 7.361268 -70.597160 -3.297904 0.154052 -0.829727 -17.906120 66.732666 -52.393566 -69.160530 37.695129 5.575556 -0.786645 46.969555 0.000008 0.000034 12.164840 0.000128 -0.000003 8.921564 -0.001711 0.000012 -0.000727 -5.541796 1.224024 3.228651 -5.030032 0.022749 0.526920 -4.915045 0.118576 0.463786 0.000001 0.000456 0.000001 -7.052214 0.508266 -1.041121 -4.956363 -0.050895 0.192652 -4.956758 0.035387 0.169962 -0.001138 0.000003 0.000085 -11.831571 -0.625448 -6.586007 -6.727349 0.097442 -0.299795 -6.539047 -0.051863 -0.196934 -0.000074 0.000009 -0.000000 -14.639214 -1.831719 -12.317028 -8.642528 0.152311 -0.861462 -8.605633 -0.182115 -0.645004 -0.000096 0.000016 -0.000039 0.000000 0.000000 0.000000 0.000000 0.000000 0.000000 -1.015039 -5.135698 21.543556 -0.162710 -0.804203 13.060445 -2.039346 -10.138285 12.396836 -1.174027 1.098961 -16.625925 0.000000 0.000000 0.000000 0.000000 0.000000 0.000000 0.000000 0.000000 0.000000 7.103598 -3.239519 17.501743 0.343056 0.941415 19.679602 -1.721925 5.250643 9.982176 0.922696 -0.865917 -19.316246 0.000000 0.000000 0.000000 0.000000 0.000000 0.000000 0.000000 0.000000 0.000000 
